<svg xmlns="http://www.w3.org/2000/svg" width="256" height="256"><path fill="#1976D2" fill-opacity=".231" fill-rule="evenodd" d="M0 128.004v128.004l128.25-.254 128.25-.254.254-127.75L257.008 0H0zm.485.496c0 70.4.119 99.053.265 63.672s.146-92.98 0-128S.485 58.1.485 128.5"/><path fill="#1976D2" fill-opacity=".312" fill-rule="evenodd" d="M0 128.004v128.004l128.25-.254 128.25-.254.254-127.75L257.008 0H0zm.483.496c0 70.4.159 102.35.353 71 .32-51.904.474-56.322 1.72-49.422 8.428 46.688 42.272 85.206 87.273 99.326 24.16 7.581 52.182 7.581 76.342 0 39.45-12.379 70.858-43.795 83.244-83.268 4.637-14.778 5.877-24.811 5.268-42.636-.577-16.918-2.095-25.201-7.236-39.5-13.033-36.245-43.955-65.693-81.276-77.404C153.724 2.69 142.193 1 128 1c-26.626 0-48.96 6.778-71.268 21.629C28.78 41.238 8.645 72.194 2.556 105.922 1.31 112.827 1.157 108.479.836 57 .642 25.925.483 58.1.483 128.5m52.595-75.078L42.692 63.843l4.139 4.702C55.638 78.551 64.065 94.121 67.643 107c2.544 9.157 2.544 32.843 0 42-3.579 12.882-12.005 28.449-20.818 38.461l-4.144 4.708 10.592 10.593 10.593 10.592 3.912-3.535c9.392-8.485 22.429-15.828 36.222-20.403 7.856-2.606 9.675-2.82 24-2.82s16.144.214 24 2.82c13.793 4.575 26.83 11.918 36.222 20.403l3.912 3.535 10.593-10.592 10.592-10.593-4.144-4.708c-8.813-10.012-17.239-25.579-20.818-38.461-2.544-9.157-2.544-32.843 0-42 3.579-12.882 12.005-28.449 20.818-38.461l4.144-4.708-10.592-10.593-10.593-10.592-3.912 3.535C178.83 54.666 165.793 62.009 152 66.584c-7.856 2.606-9.675 2.82-24 2.82-14.323 0-16.145-.214-24-2.819-4.675-1.55-10.75-3.941-13.5-5.313-6.897-3.441-20.491-12.539-23.424-15.678C65.742 44.167 64.384 43 64.058 43c-.327 0-5.267 4.69-10.98 10.422"/><path fill="#1976D2" fill-opacity=".629" fill-rule="evenodd" d="M.15 60.25c.082 33.138.306 58.9.497 57.25 2.792-24.078 9.502-42.944 21.866-61.473C28.199 47.505 43.844 31.215 52 25.322 70.256 12.134 91.828 3.578 113.001 1.127 117.954.554 100.047.215 60.25.13L0 0zM142.999 1.127c29.293 3.39 57.468 17.671 77.854 39.46 20.083 21.464 30.856 45.483 34.5 76.913.191 1.65.415-24.112.497-57.25L256 0l-60.25.13c-39.797.085-57.704.424-52.751.997M53.298 53.3 43.23 63.5l6.416 8c7.606 9.484 15.501 24.871 18.472 36 2.998 11.232 2.998 29.768 0 41-2.953 11.062-10.828 26.449-18.486 36.119l-6.429 8.119 10.148 10.084L63.5 212.906l3.5-2.993c29.491-25.224 64.673-31.213 96.626-16.45 8.26 3.816 16.212 8.898 23.713 15.154l5.161 4.305 10.149-10.092 10.148-10.092-6.429-8.119c-7.658-9.67-15.533-25.057-18.486-36.119-2.998-11.232-2.998-29.768 0-41 2.953-11.062 10.828-26.449 18.486-36.119l6.429-8.119-10.148-10.092L192.5 43.078l-5.305 4.424c-33.323 27.79-73.451 30.459-108.316 7.203-4.609-3.074-9.984-6.943-11.946-8.597l-3.568-3.009zM.15 195.75 0 256l60.75-.16c33.413-.088 59.175-.31 57.25-.494-22.752-2.167-43.257-9.397-62-21.859-9.635-6.407-27.08-23.852-33.487-33.487C10.12 181.361 3.437 162.565.647 138.5c-.191-1.65-.415 24.113-.497 57.25M255 139.912c0 15.61-9.442 41.971-21.513 60.061-5.686 8.522-21.331 24.812-29.487 30.705-18.256 13.188-39.828 21.744-61.001 24.195-4.953.573 12.954.912 52.751.997L256 256v-60c0-33-.225-60-.5-60s-.5 1.76-.5 3.912"/><path fill="#1976D2" fill-opacity=".96" fill-rule="evenodd" d="M.15 58.25c.082 32.038.319 56.9.526 55.25C8.115 54.223 54.223 8.115 113.5.676 115.15.469 90.288.232 58.25.15L0 0zM142.5.676C201.828 8.122 247.878 54.172 255.324 113.5c.207 1.65.444-23.212.526-55.25L256 0l-58.25.15c-32.038.082-56.9.319-55.25.526M53.614 53.885l-9.848 9.885 5.398 6.544C62.92 86.991 70.985 108.312 70.985 128c0 19.691-8.065 41.009-21.826 57.692l-5.404 6.551 9.985 9.985 9.985 9.985 6.36-5.125c11.717-9.441 26.131-16.735 39.915-20.198 7.215-1.813 28.785-1.813 36 0 13.83 3.475 28.424 10.844 39.887 20.142l6.388 5.181 9.985-9.985 9.985-9.985-5.404-6.551c-13.761-16.683-21.826-38.001-21.826-57.692s8.065-41.009 21.826-57.692l5.404-6.551-9.985-9.985-9.985-9.985-6.36 5.125c-28.805 23.211-62.797 28.219-93.338 13.751-9.48-4.49-22.736-12.971-26.12-16.71C65.485 44.879 64.414 44 64.076 44s-5.045 4.448-10.462 9.885M.15 197.75 0 256l58.25-.15c32.038-.082 56.9-.319 55.25-.526C54.172 247.878 8.122 201.828.676 142.5c-.207-1.65-.444 23.212-.526 55.25M255 143.042c0 1.673-.695 6.406-1.544 10.518-11.164 54.047-55.619 94.819-110.956 101.764-1.65.207 23.212.444 55.25.526L256 256v-58c0-31.9-.225-58-.5-58s-.5 1.369-.5 3.042"/></svg>